<?xml version="1.0" encoding="utf-8"?>
<!-- Generator: Adobe Illustrator 24.1.0, SVG Export Plug-In . SVG Version: 6.00 Build 0)  -->
<svg version="1.1" id="Layer_1" xmlns="http://www.w3.org/2000/svg" xmlns:xlink="http://www.w3.org/1999/xlink" x="0px" y="0px"
	 viewBox="0 0 957 292" style="enable-background:new 0 0 957 292;" xml:space="preserve">
<style type="text/css">
	.st0{fill:#FFFFFF;}
	.st1{fill:#212121;}
	.st2{fill:#2D5AED;}
</style>
<g>
	<g>
		<path class="st0" d="M331-116.2v79.1h-36.4v-214.4h34.6v21.1c14.8-16.2,36.7-26.2,62.4-26.2c44.8,0,78.8,36.5,78.8,82.1
			c0,45.6-34,83.2-78.8,83.2C367.2-91.4,345.9-101.1,331-116.2z M381.5-123.2c29.4,0,50.5-23.2,50.5-50.5s-21.1-51-50.5-51
			c-29.4,0-51.6,23.8-51.6,50.8C330-146.7,352.1-123.2,381.5-123.2z"/>
		<path class="st0" d="M525.2-96.5h-36.5v-210.6h36.5V-96.5z"/>
		<path class="st0" d="M587-273.4h-37.5v-33.8H587V-273.4z M586.4-96.5H550v-155h36.5V-96.5z"/>
		<path class="st0" d="M733-99.2c-7.3,5.4-25.9,7.8-37.3,7.8c-52.1,0-91-35.9-91-82.6c0-46.4,38.9-82.6,91-82.6
			c11.3,0,29.7,2.4,37.3,7.8v32.9H732c-10.3-8.4-24.8-9.7-36.2-9.7c-30.5,0-52.7,22.1-52.7,51.6c0,29.7,22.1,51.6,52.7,51.6
			c11.3,0,25.9-1.6,36.2-9.7h1.1V-99.2z"/>
		<path class="st0" d="M928-174c0,47.2-38.1,85.3-89.9,85.3c-51.6,0-89.9-38.1-89.9-85.3s38.3-85.3,89.9-85.3
			C889.9-259.3,928-221.3,928-174z M786.5-174c0,30,21.9,54.3,51.6,54.3c30,0,51.8-24.6,51.8-54.3c0-30-21.9-54.3-51.8-54.3
			C808.4-228.3,786.5-204,786.5-174z"/>
	</g>
	<g>
		<path class="st0" d="M174.1-306.9l-50.5,116.5c0,0,97.6,68,91.8,153.5l41.7-111C257.2-147.9,268.6-238.6,174.1-306.9z"/>
		<path class="st0" d="M29.2-113.3L29-113C29-113.1,29.1-113.2,29.2-113.3z"/>
		<path class="st0" d="M208.5-37.4c-23.7-51.4-49.4-77.1-98.9-83.1c-31.5-3.8-51.4,0-79.1,7.9l75.1-135.7c12.5-14.9,35-17.2,35-17.2
			l-37.6,86.2C160.6-156.4,204.5-90.8,208.5-37.4z"/>
		<path class="st0" d="M202.1-36.9C201-38.5,154.4-103,36.2-65.2l22.7-38.3C58.9-103.5,159-124.4,202.1-36.9z"/>
	</g>
</g>
<g>
	<g>
		<path class="st1" d="M330.6,201.7v79.1h-36.4V66.4h34.6v21.1c14.8-16.2,36.7-26.2,62.4-26.2c44.8,0,78.8,36.5,78.8,82.1
			c0,45.6-34,83.2-78.8,83.2C366.8,226.5,345.5,216.8,330.6,201.7z M381.1,194.6c29.4,0,50.5-23.2,50.5-50.5s-21.1-51-50.5-51
			c-29.4,0-51.6,23.8-51.6,50.8C329.6,171.2,351.7,194.6,381.1,194.6z"/>
		<path class="st1" d="M524.7,221.4h-36.5V10.8h36.5V221.4z"/>
		<path class="st1" d="M586.6,44.5H549V10.8h37.5V44.5z M586,221.4h-36.5v-155H586V221.4z"/>
		<path class="st1" d="M732.6,218.7c-7.3,5.4-25.9,7.8-37.3,7.8c-52.1,0-91-35.9-91-82.6c0-46.4,38.9-82.6,91-82.6
			c11.3,0,29.7,2.4,37.3,7.8V102h-1.1c-10.3-8.4-24.8-9.7-36.2-9.7c-30.5,0-52.7,22.1-52.7,51.6c0,29.7,22.1,51.6,52.7,51.6
			c11.3,0,25.9-1.6,36.2-9.7h1.1V218.7z"/>
		<path class="st1" d="M927.6,143.9c0,47.2-38.1,85.3-89.9,85.3c-51.6,0-89.9-38.1-89.9-85.3s38.3-85.3,89.9-85.3
			C889.5,58.6,927.6,96.6,927.6,143.9z M786.1,143.9c0,30,21.9,54.3,51.6,54.3c30,0,51.8-24.6,51.8-54.3c0-30-21.9-54.3-51.8-54.3
			C808,89.6,786.1,113.9,786.1,143.9z"/>
	</g>
	<g>
		<path class="st2" d="M173.7,11l-50.5,116.5c0,0,97.6,68,91.8,153.5l41.7-111C256.8,170,268.2,79.3,173.7,11z"/>
		<path class="st2" d="M28.8,204.6l-0.2,0.3C28.6,204.8,28.7,204.7,28.8,204.6z"/>
		<path class="st2" d="M208.1,280.5c-23.7-51.4-49.4-77.1-98.9-83.1c-31.5-3.8-51.4,0-79.1,7.9l75.1-135.7
			c12.5-14.9,35-17.2,35-17.2l-37.6,86.2C160.2,161.5,204.1,227.1,208.1,280.5z"/>
		<path class="st2" d="M201.7,281c-1.1-1.6-47.8-66.1-165.9-28.2l22.7-38.3C58.5,214.4,158.6,193.5,201.7,281z"/>
	</g>
</g>
</svg>
